Coordinates
version=1
nRows=4
nColumns=40
inDegrees=yes

Units are S.I. units (second, meters, Newtons, ...)
If the header above contains a line with 'inDegrees', this indicates whether rotational values are in degrees (yes) or radians (no).

endheader
time	pelvis_tilt	pelvis_list	pelvis_rotation	pelvis_tx	pelvis_ty	pelvis_tz	hip_flexion_r	hip_adduction_r	hip_rotation_r	knee_angle_r	knee_angle_r_beta	ankle_angle_r	subtalar_angle_r	mtp_angle_r	hip_flexion_l	hip_adduction_l	hip_rotation_l	knee_angle_l	knee_angle_l_beta	ankle_angle_l	subtalar_angle_l	mtp_angle_l	lumbar_extension	lumbar_bending	lumbar_rotation	arm_flex_r	arm_add_r	arm_rot_r	elbow_flex_r	pro_sup_r	wrist_flex_r	wrist_dev_r	arm_flex_l	arm_add_l	arm_rot_l	elbow_flex_l	pro_sup_l	wrist_flex_l	wrist_dev_l
      9.09500000000000063949	     33.71785636855892676067	     -5.27546759280820776183	   -178.70876912387865331766	      0.29991445701288271808	      0.92138711173204301819	     -0.55090803687751144224	     65.90993876741895007854	    -13.93693318161446192960	      2.01668152304098757810	     36.57825543993777728247	      0.63841099206244111830	      7.11925110327719412595	      0.00000000000000000000	      0.00000000000000000000	     61.32654892747410002585	      0.96641135882300599480	     -3.30227504684125205969	     32.79269277260299020327	      0.57234045947687028910	      5.92729057860150110315	      0.00000000000000000000	      0.00000000000000000000	      3.87696229115141210997	     -3.23779648755096571833	     -2.94450637038762463860	     22.16573658636359311913	    -14.80253159373298110779	     39.89158361402167685128	     19.23731622112503103494	     89.04425540940985683847	      0.00000000000000000000	      0.00000000000000000000	     25.71762739358743488083	    -15.09065689742812210739	     58.09721215644039205017	     20.67227136893010808194	     86.99206551285823252329	      0.00000000000000000000	      0.00000000000000000000
      9.09999999999999964473	     33.61791029454766288609	     -5.25088125737807320803	   -178.62203368184873397695	      0.29775218315393575663	      0.92249535946344685122	     -0.55077351845421795851	     65.58402232752331428856	    -13.99763464747463537208	      2.01340778667755859743	     36.55858172343756962164	      0.63806762093340863018	      7.09929514232265468365	      0.00000000000000000000	      0.00000000000000000000	     61.05605180848786517345	      1.05074582429556273588	     -3.24406617960259913147	     32.77349752949049843664	      0.57200543928383662529	      5.86273600645971626477	      0.00000000000000000000	      0.00000000000000000000	      4.41366419652163433085	     -3.26989493099254469044	     -3.06583151563111400151	     21.70439423830636016532	    -14.75722160459354981299	     39.95749914635120347839	     19.19641301955264722778	     89.05651584158562172888	      0.00000000000000000000	      0.00000000000000000000	     25.22949159250551076639	    -15.10804884423449756525	     58.16683529361884552600	     20.61475358924323586507	     87.00262274001354967368	      0.00000000000000000000	      0.00000000000000000000
      9.10500000000000042633	     33.64068653370280514991	     -5.55501391510499686888	   -178.75190511751503663618	      0.29539067332896601359	      0.92368262974408543720	     -0.55095918226323004063	     65.25058654748099229437	    -13.97667930854562179377	      2.50127775701589616375	     36.02987366130586366353	      0.62883992446737158044	      7.42199734843086389446	      0.00000000000000000000	      0.00000000000000000000	     60.50641626949651907807	      1.25841842065797093753	     -3.18217268823651577847	     32.01845598430800521328	      0.55882747833105661517	      5.96299937496280030302	      0.00000000000000000000	      0.00000000000000000000	      5.09838956440615209686	     -3.65554301051706254100	     -2.85880915449844641429	     21.00906613044734427831	    -14.90809966344020587314	     40.07120496896270367415	     19.62059265449424927397	     89.04224057772452738391	      0.00000000000000000000	      0.00000000000000000000	     24.62552092125410752033	    -15.33847160434663159378	     58.01972598364117317260	     20.95258528052897517568	     87.02049413749318773625	      0.00000000000000000000	      0.00000000000000000000
      9.10999999999999943157	     33.59339150589426026272	     -5.65334200067001901857	   -178.79092858247125263915	      0.29305185868087002543	      0.92474208342925490189	     -0.55099172394210127468	     64.96839139921455341664	    -14.07488497652300196705	      2.30086940005837270462	     35.86080062070116269979	      0.62588904323246152828	      7.47319763838400774603	      0.00000000000000000000	      0.00000000000000000000	     60.18636637118684262759	      1.31487653227337086825	     -3.28486197706789573303	     31.82917128448395871487	      0.55552383709547781265	      5.99638916162476398597	      0.00000000000000000000	      0.00000000000000000000	      5.71540733238054698973	     -3.81725577673117033584	     -2.81312624692849899688	     20.51023423144670942975	    -14.87592043975238809139	     40.14709720080646349061	     19.60496193996230473999	     89.04509003446250403613	      0.00000000000000000000	      0.00000000000000000000	     24.08979162384584071788	    -15.38856107853894350512	     58.05016090505367287733	     20.95169358371999379642	     87.03024472508315056984	      0.00000000000000000000	      0.00000000000000000000
